<svg aria-hidden="true" style="position: absolute; width: 0; height: 0; overflow: hidden;" version="1.1" xmlns="http://www.w3.org/2000/svg" xmlns:xlink="http://www.w3.org/1999/xlink">
<defs>
<symbol id="logo" viewBox="0 0 40 32">
<path  d="M37.654 0.504c-3.806 0.213-11.37 0.986-16.039 3.8-0.322 0.194-0.505 0.539-0.505 0.9v24.874c0 0.79 0.877 1.289 1.617 0.922 4.804-2.38 11.752-3.030 15.188-3.207 1.173-0.061 2.085-0.986 2.085-2.096v-23.095c0.001-1.211-1.066-2.17-2.345-2.099zM18.384 4.304c-4.669-2.814-12.233-3.587-16.038-3.8-1.279-0.071-2.346 0.888-2.346 2.099v23.095c0 1.11 0.912 2.036 2.085 2.096 3.437 0.178 10.388 0.828 15.192 3.209 0.738 0.366 1.612-0.133 1.612-0.92v-24.891c0-0.362-0.182-0.693-0.505-0.888z"></path>
</symbol>
</defs>
</svg>
